<?xml version="1.0" encoding="UTF-8" standalone="no"?>
<!-- Created with Inkscape (http://www.inkscape.org/) -->

<svg
   version="1.1"
   id="svg2"
   width="1000"
   height="666.66669"
   viewBox="0 0 1000 666.66669"
   sodipodi:docname="login1.ai"
   xmlns:inkscape="http://www.inkscape.org/namespaces/inkscape"
   xmlns:sodipodi="http://sodipodi.sourceforge.net/DTD/sodipodi-0.dtd"
   xmlns="http://www.w3.org/2000/svg"
   xmlns:svg="http://www.w3.org/2000/svg">
  <defs
     id="defs6">
    <clipPath
       clipPathUnits="userSpaceOnUse"
       id="clipPath22">
      <path
         d="M 0,0 H 750 V 500 H 0 Z"
         id="path20" />
    </clipPath>
  </defs>
  <sodipodi:namedview
     id="namedview4"
     pagecolor="#ffffff"
     bordercolor="#000000"
     borderopacity="0.25"
     inkscape:showpageshadow="2"
     inkscape:pageopacity="0.0"
     inkscape:pagecheckerboard="0"
     inkscape:deskcolor="#d1d1d1" />
  <g
     id="g8"
     inkscape:groupmode="layer"
     inkscape:label="login1"
     transform="matrix(1.3333333,0,0,-1.3333333,0,666.66667)">
    <path
       d="M 0,0 H 750 V 500 H 0 Z"
       style="fill:#ffffff;fill-opacity:1;fill-rule:nonzero;stroke:none"
       id="path10" />
    <path
       d="M 672.992,0 H 750 v 402.208 h -77.008 z"
       style="fill:#00ac9a;fill-opacity:1;fill-rule:nonzero;stroke:none"
       id="path12" />
    <path
       d="M 0,0 H 85.205 V 140.43 H 0 Z"
       style="fill:#002739;fill-opacity:1;fill-rule:nonzero;stroke:none"
       id="path14" />
    <g
       id="g16">
      <g
         id="g18"
         clip-path="url(#clipPath22)">
        <g
           id="g24"
           transform="translate(296.0679,-2)">
          <path
             d="M 0,0 V 0 C 0,98.545 79.887,178.432 178.432,178.432 V 0 Z"
             style="fill:#00ac9a;fill-opacity:1;fill-rule:nonzero;stroke:none"
             id="path26" />
        </g>
        <path
           d="M 262.776,-11.746 H 127.2 v 117.648 h 135.576 z"
           style="fill:#ff6c6c;fill-opacity:1;fill-rule:nonzero;stroke:none"
           id="path28" />
        <path
           d="M 551.32,198.68 H 761.746 V -11.746 H 551.32 Z"
           style="fill:#ffbaba;fill-opacity:1;fill-rule:nonzero;stroke:none"
           id="path30" />
        <path
           d="M 18.058,-11.746 H 0 v 356.743 h 18.058 z"
           style="fill:#00ac9a;fill-opacity:1;fill-rule:nonzero;stroke:none"
           id="path32" />
        <path
           d="M 58.351,-11.746 H 40.293 v 356.743 h 18.058 z"
           style="fill:#00ac9a;fill-opacity:1;fill-rule:nonzero;stroke:none"
           id="path34" />
        <path
           d="M 98.643,-11.746 H 80.585 v 356.743 h 18.058 z"
           style="fill:#00ac9a;fill-opacity:1;fill-rule:nonzero;stroke:none"
           id="path36" />
        <path
           d="m 138.936,-11.746 h -18.059 v 356.743 h 18.059 z"
           style="fill:#00ac9a;fill-opacity:1;fill-rule:nonzero;stroke:none"
           id="path38" />
        <path
           d="M 138.936,320.215 H -13.059 v 185.674 h 151.995 z"
           style="fill:#ffcb00;fill-opacity:1;fill-rule:nonzero;stroke:none"
           id="path40" />
        <g
           id="g42"
           transform="translate(278.1616,320.2148)">
          <path
             d="M 0,0 V 192.29 H 138.935 Z"
             style="fill:#00ac9a;fill-opacity:1;fill-rule:nonzero;stroke:none"
             id="path44" />
        </g>
        <g
           id="g46"
           transform="translate(-1.3979,444.8525)">
          <path
             d="M 0,0 V 55.147 H 42.617 Z"
             style="fill:#007137;fill-opacity:1;fill-rule:nonzero;stroke:none"
             id="path48" />
        </g>
        <g
           id="g50"
           transform="translate(-0.3496,389.7046)">
          <path
             d="M 0,0 V 55.148 H 42.618 Z"
             style="fill:#007137;fill-opacity:1;fill-rule:nonzero;stroke:none"
             id="path52" />
        </g>
        <g
           id="g54"
           transform="translate(45.0278,444.8525)">
          <path
             d="M 0,0 V 55.147 H 42.618 Z"
             style="fill:#007137;fill-opacity:1;fill-rule:nonzero;stroke:none"
             id="path56" />
        </g>
        <g
           id="g58"
           transform="translate(46.0767,389.7046)">
          <path
             d="M 0,0 V 55.148 H 42.617 Z"
             style="fill:#007137;fill-opacity:1;fill-rule:nonzero;stroke:none"
             id="path60" />
        </g>
        <g
           id="g62"
           transform="translate(661.1064,55.1475)">
          <path
             d="M 0,0 V -55.147 H -42.617 Z"
             style="fill:#002739;fill-opacity:1;fill-rule:nonzero;stroke:none"
             id="path64" />
        </g>
        <g
           id="g66"
           transform="translate(661.1064,110.2959)">
          <path
             d="M 0,0 V -55.148 H -42.617 Z"
             style="fill:#002739;fill-opacity:1;fill-rule:nonzero;stroke:none"
             id="path68" />
        </g>
        <g
           id="g70"
           transform="translate(614.6807,55.1475)">
          <path
             d="M 0,0 V -55.147 H -42.617 Z"
             style="fill:#002739;fill-opacity:1;fill-rule:nonzero;stroke:none"
             id="path72" />
        </g>
        <g
           id="g74"
           transform="translate(614.6807,110.2959)">
          <path
             d="M 0,0 V -55.148 H -42.617 Z"
             style="fill:#002739;fill-opacity:1;fill-rule:nonzero;stroke:none"
             id="path76" />
        </g>
        <g
           id="g78"
           transform="translate(750,55.1475)">
          <path
             d="M 0,0 V -55.147 H -42.617 Z"
             style="fill:#002739;fill-opacity:1;fill-rule:nonzero;stroke:none"
             id="path80" />
        </g>
        <g
           id="g82"
           transform="translate(750,110.2959)">
          <path
             d="M 0,0 V -55.148 H -42.617 Z"
             style="fill:#002739;fill-opacity:1;fill-rule:nonzero;stroke:none"
             id="path84" />
        </g>
        <g
           id="g86"
           transform="translate(703.5742,55.1475)">
          <path
             d="M 0,0 V -55.147 H -42.617 Z"
             style="fill:#002739;fill-opacity:1;fill-rule:nonzero;stroke:none"
             id="path88" />
        </g>
        <g
           id="g90"
           transform="translate(703.5742,110.2959)">
          <path
             d="M 0,0 V -55.148 H -42.617 Z"
             style="fill:#002739;fill-opacity:1;fill-rule:nonzero;stroke:none"
             id="path92" />
        </g>
        <g
           id="g94"
           transform="translate(208.4033,230.3223)">
          <path
             d="M 0,0 V 0 C -38.366,0 -69.468,31.102 -69.468,69.468 V 89.893 H 69.468 V 69.468 C 69.468,31.102 38.366,0 0,0"
             style="fill:#ffcb00;fill-opacity:1;fill-rule:nonzero;stroke:none"
             id="path96" />
        </g>
        <g
           id="g98"
           transform="translate(208.4033,230.3223)">
          <path
             d="M 0,0 V 0 C 38.366,0 69.468,-31.102 69.468,-69.468 V -89.893 H -69.468 v 20.425 C -69.468,-31.102 -38.366,0 0,0"
             style="fill:#ffe153;fill-opacity:1;fill-rule:nonzero;stroke:none"
             id="path100" />
        </g>
        <g
           id="g102"
           transform="translate(260.1938,425.4443)">
          <path
             d="m 0,0 c 0,-25.947 -21.035,-46.981 -46.981,-46.981 -25.948,0 -46.982,21.034 -46.982,46.981 0,25.947 21.034,46.982 46.982,46.982 C -21.035,46.982 0,25.947 0,0"
             style="fill:#00abde;fill-opacity:1;fill-rule:nonzero;stroke:none"
             id="path104" />
        </g>
        <g
           id="g106"
           transform="translate(262.7764,320.2148)">
          <path
             d="m 0,0 c 0,-13.687 -11.095,-24.782 -24.782,-24.782 -13.687,0 -24.782,11.095 -24.782,24.782 0,13.687 11.095,24.782 24.782,24.782 C -11.095,24.782 0,13.687 0,0"
             style="fill:#002739;fill-opacity:1;fill-rule:nonzero;stroke:none"
             id="path108" />
        </g>
        <g
           id="g110"
           transform="translate(196.689,458.3745)">
          <path
             d="m 0,0 c 0,-7.219 -5.852,-13.072 -13.071,-13.072 -7.22,0 -13.072,5.853 -13.072,13.072 0,7.219 5.852,13.071 13.072,13.071 C -5.852,13.071 0,7.219 0,0"
             style="fill:#002739;fill-opacity:1;fill-rule:nonzero;stroke:none"
             id="path112" />
        </g>
        <g
           id="g114"
           transform="translate(431.8301,89.2158)">
          <path
             d="m 0,0 c 0,-13.687 -11.095,-24.782 -24.781,-24.782 -13.688,0 -24.782,11.095 -24.782,24.782 0,13.687 11.094,24.782 24.782,24.782 C -11.095,24.782 0,13.687 0,0"
             style="fill:#002739;fill-opacity:1;fill-rule:nonzero;stroke:none"
             id="path116" />
        </g>
        <path
           d="m 514.113,-11.746 h -54.81 v 413.955 h 54.81 z"
           style="fill:#a3d8c7;fill-opacity:1;fill-rule:nonzero;stroke:#a3d8c7;stroke-width:1;stroke-linecap:butt;stroke-linejoin:miter;stroke-miterlimit:10;stroke-dasharray:none;stroke-opacity:1"
           id="path118" />
        <path
           d="M 772.537,361.638 H 459.304 V 499.27 h 313.233 z"
           style="fill:#ffe153;fill-opacity:1;fill-rule:nonzero;stroke:none"
           id="path120" />
        <g
           id="g122"
           transform="translate(688.5439,419.4785)">
          <path
             d="M 0,0 H -3.502 C -37.443,0 -64.958,27.515 -64.958,61.456 V 81.792 H 61.456 V 61.456 C 61.456,27.515 33.941,0 0,0"
             style="fill:#00ac9a;fill-opacity:1;fill-rule:nonzero;stroke:none"
             id="path124" />
        </g>
        <g
           id="g126"
           transform="translate(562.1309,419.4785)">
          <path
             d="M 0,0 H -3.503 C -37.444,0 -64.959,27.515 -64.959,61.456 V 81.792 H 61.455 V 61.456 C 61.455,27.515 33.94,0 0,0"
             style="fill:#00ac9a;fill-opacity:1;fill-rule:nonzero;stroke:none"
             id="path128" />
        </g>
        <g
           id="g130"
           transform="translate(598.1904,487.813)">
          <path
             d="m 0,0 c 0,-20.882 -16.929,-37.811 -37.812,-37.811 -20.881,0 -37.81,16.929 -37.81,37.811 0,20.882 16.929,37.811 37.81,37.811 C -16.929,37.811 0,20.882 0,0"
             style="fill:#002739;fill-opacity:1;fill-rule:nonzero;stroke:none"
             id="path132" />
        </g>
        <g
           id="g134"
           transform="translate(578.4541,487.813)">
          <path
             d="m 0,0 c 0,-9.983 -8.092,-18.075 -18.075,-18.075 -9.983,0 -18.075,8.092 -18.075,18.075 0,9.983 8.092,18.076 18.075,18.076 C -8.092,18.076 0,9.983 0,0"
             style="fill:#fdfefe;fill-opacity:1;fill-rule:nonzero;stroke:none"
             id="path136" />
        </g>
        <path
           d="m 384.395,320.215 h -16.79 v 198.08 h 16.79 z"
           style="fill:#002739;fill-opacity:1;fill-rule:nonzero;stroke:none"
           id="path138" />
        <path
           d="m 413.797,320.215 h -16.79 v 198.08 h 16.79 z"
           style="fill:#002739;fill-opacity:1;fill-rule:nonzero;stroke:none"
           id="path140" />
        <path
           d="m 443.199,320.215 h -16.79 v 198.08 h 16.79 z"
           style="fill:#002739;fill-opacity:1;fill-rule:nonzero;stroke:none"
           id="path142" />
        <g
           id="g144"
           transform="translate(384.0967,-38.4346)">
          <path
             d="m 0,0 c 0,-58.491 -47.417,-105.908 -105.908,-105.908 -58.491,0 -105.908,47.417 -105.908,105.908 0,58.492 47.417,105.908 105.908,105.908 C -47.417,105.908 0,58.492 0,0 Z"
             style="fill:none;stroke:#002739;stroke-width:37;stroke-linecap:butt;stroke-linejoin:miter;stroke-miterlimit:10;stroke-dasharray:none;stroke-opacity:1"
             id="path146" />
        </g>
        <path
           d="M 761.746,230.322 H 278.188 v 31.695 h 483.558 z"
           style="fill:#002739;fill-opacity:1;fill-rule:nonzero;stroke:none"
           id="path148" />
        <path
           d="m 612.632,295.433 h 64.603 v -153.65 h -64.603 z"
           style="fill:#ff6c6c;fill-opacity:1;fill-rule:nonzero;stroke:none"
           id="path150" />
        <g
           id="g152"
           transform="translate(220.5615,185.376)">
          <path
             d="m 0,0 c 0,-6.715 -5.444,-12.158 -12.158,-12.158 -6.715,0 -12.158,5.443 -12.158,12.158 0,6.715 5.443,12.158 12.158,12.158 C -5.444,12.158 0,6.715 0,0"
             style="fill:#fdfefe;fill-opacity:1;fill-rule:nonzero;stroke:none"
             id="path154" />
        </g>
        <g
           id="g156"
           transform="translate(655.5898,171.6924)">
          <path
             d="m 0,0 c 0,-5.886 -4.771,-10.657 -10.656,-10.657 -5.886,0 -10.657,4.771 -10.657,10.657 0,5.886 4.771,10.656 10.657,10.656 C -4.771,10.656 0,5.886 0,0"
             style="fill:#fdfefe;fill-opacity:1;fill-rule:nonzero;stroke:none"
             id="path158" />
        </g>
        <g
           id="g160"
           transform="translate(655.5898,218.6074)">
          <path
             d="m 0,0 c 0,-5.886 -4.771,-10.656 -10.656,-10.656 -5.886,0 -10.657,4.77 -10.657,10.656 0,5.886 4.771,10.657 10.657,10.657 C -4.771,10.657 0,5.886 0,0"
             style="fill:#fdfefe;fill-opacity:1;fill-rule:nonzero;stroke:none"
             id="path162" />
        </g>
        <g
           id="g164"
           transform="translate(655.5898,265.5234)">
          <path
             d="m 0,0 c 0,-5.886 -4.771,-10.657 -10.656,-10.657 -5.886,0 -10.657,4.771 -10.657,10.657 0,5.885 4.771,10.657 10.657,10.657 C -4.771,10.657 0,5.885 0,0"
             style="fill:#fdfefe;fill-opacity:1;fill-rule:nonzero;stroke:none"
             id="path166" />
        </g>
        <path
           d="m 514.113,230.322 h -10.899 v 31.695 h 10.899 z"
           style="fill:#fdfefe;fill-opacity:1;fill-rule:nonzero;stroke:none"
           id="path168" />
        <path
           d="m 470.203,230.322 h -10.899 v 31.695 h 10.899 z"
           style="fill:#fdfefe;fill-opacity:1;fill-rule:nonzero;stroke:none"
           id="path170" />
        <path
           d="m 492.158,230.322 h -10.899 v 31.695 h 10.899 z"
           style="fill:#fdfefe;fill-opacity:1;fill-rule:nonzero;stroke:none"
           id="path172" />
        <g
           id="g174"
           transform="translate(435.0127,199.2949)">
          <path
             d="M 0,0 11.125,19.27 H -11.126 L 0,0 11.125,19.27 h -22.251 z"
             style="fill:#0097f5;fill-opacity:1;fill-rule:nonzero;stroke:none"
             id="path176" />
        </g>
        <g
           id="g178"
           transform="translate(405.4023,199.2949)">
          <path
             d="M 0,0 11.125,19.27 H -11.126 L 0,0 11.125,19.27 h -22.251 z"
             style="fill:#0097f5;fill-opacity:1;fill-rule:nonzero;stroke:none"
             id="path180" />
        </g>
        <g
           id="g182"
           transform="translate(375.7915,199.2949)">
          <path
             d="m 0,0 11.125,19.27 h -22.25 L 0,0 11.125,19.27 h -22.25 z"
             style="fill:#0097f5;fill-opacity:1;fill-rule:nonzero;stroke:none"
             id="path184" />
        </g>
        <g
           id="g186"
           transform="translate(348.2173,199.2949)">
          <path
             d="m 0,0 11.125,19.27 h -22.25 L 0,0 11.125,19.27 h -22.25 z"
             style="fill:#0097f5;fill-opacity:1;fill-rule:nonzero;stroke:none"
             id="path188" />
        </g>
        <g
           id="g190"
           transform="translate(318.6069,199.2949)">
          <path
             d="m 0,0 11.125,19.27 h -22.25 L 0,0 11.125,19.27 h -22.25 z"
             style="fill:#0097f5;fill-opacity:1;fill-rule:nonzero;stroke:none"
             id="path192" />
        </g>
        <g
           id="g194"
           transform="translate(288.9966,199.2949)">
          <path
             d="m 0,0 11.125,19.27 h -22.25 L 0,0 11.125,19.27 h -22.25 z"
             style="fill:#0097f5;fill-opacity:1;fill-rule:nonzero;stroke:none"
             id="path196" />
        </g>
        <g
           id="g198"
           transform="translate(490.8936,164.6445)">
          <path
             d="M 0,0 -19.27,11.126 V -11.125 L 0,0 -19.27,11.126 v -22.251 z"
             style="fill:#00ac9a;fill-opacity:1;fill-rule:nonzero;stroke:none"
             id="path200" />
        </g>
        <g
           id="g202"
           transform="translate(490.8936,135.0342)">
          <path
             d="M 0,0 -19.27,11.126 V -11.125 L 0,0 -19.27,11.126 v -22.251 z"
             style="fill:#00ac9a;fill-opacity:1;fill-rule:nonzero;stroke:none"
             id="path204" />
        </g>
        <g
           id="g206"
           transform="translate(490.8936,105.4238)">
          <path
             d="M 0,0 -19.27,11.126 V -11.125 L 0,0 -19.27,11.126 v -22.251 z"
             style="fill:#00ac9a;fill-opacity:1;fill-rule:nonzero;stroke:none"
             id="path208" />
        </g>
        <g
           id="g210"
           transform="translate(490.8936,77.8496)">
          <path
             d="M 0,0 -19.27,11.126 V -11.125 L 0,0 -19.27,11.126 v -22.251 z"
             style="fill:#00ac9a;fill-opacity:1;fill-rule:nonzero;stroke:none"
             id="path212" />
        </g>
        <g
           id="g214"
           transform="translate(490.8936,48.2393)">
          <path
             d="m 0,0 -19.27,11.125 v -22.25 L 0,0 -19.27,11.125 v -22.25 z"
             style="fill:#00ac9a;fill-opacity:1;fill-rule:nonzero;stroke:none"
             id="path216" />
        </g>
        <g
           id="g218"
           transform="translate(490.8936,18.6289)">
          <path
             d="M 0,0 -19.27,11.125 V -11.126 L 0,0 -19.27,11.125 v -22.251 z"
             style="fill:#00ac9a;fill-opacity:1;fill-rule:nonzero;stroke:none"
             id="path220" />
        </g>
        <g
           id="g222"
           transform="translate(288.9961,295.8149)">
          <path
             d="m 0,0 -11.125,-19.27 h 22.25 L 0,0 -11.125,-19.27 h 22.25 z"
             style="fill:#0097f5;fill-opacity:1;fill-rule:nonzero;stroke:none"
             id="path224" />
        </g>
        <g
           id="g226"
           transform="translate(318.6069,295.8149)">
          <path
             d="m 0,0 -11.125,-19.27 h 22.25 L 0,0 -11.125,-19.27 h 22.25 z"
             style="fill:#0097f5;fill-opacity:1;fill-rule:nonzero;stroke:none"
             id="path228" />
        </g>
        <g
           id="g230"
           transform="translate(348.2173,295.8149)">
          <path
             d="m 0,0 -11.125,-19.27 h 22.25 L 0,0 -11.125,-19.27 h 22.25 z"
             style="fill:#0097f5;fill-opacity:1;fill-rule:nonzero;stroke:none"
             id="path232" />
        </g>
        <g
           id="g234"
           transform="translate(375.7915,295.8149)">
          <path
             d="m 0,0 -11.125,-19.27 h 22.25 L 0,0 -11.125,-19.27 h 22.25 z"
             style="fill:#0097f5;fill-opacity:1;fill-rule:nonzero;stroke:none"
             id="path236" />
        </g>
        <g
           id="g238"
           transform="translate(405.4023,295.8149)">
          <path
             d="M 0,0 -11.126,-19.27 H 11.125 L 0,0 -11.126,-19.27 h 22.251 z"
             style="fill:#0097f5;fill-opacity:1;fill-rule:nonzero;stroke:none"
             id="path240" />
        </g>
        <g
           id="g242"
           transform="translate(435.0127,295.8149)">
          <path
             d="M 0,0 -11.126,-19.27 H 11.125 L 0,0 -11.126,-19.27 h 22.251 z"
             style="fill:#0097f5;fill-opacity:1;fill-rule:nonzero;stroke:none"
             id="path244" />
        </g>
      </g>
    </g>
  </g>
</svg>
